HIERARCHY
ROOT Hips
{
	OFFSET 0.000000 0.000000 0.000000
	CHANNELS 6 Xposition Yposition Zposition Zrotation Yrotation Xrotation 
	JOINT LeftUpLeg_virtual
	{
		OFFSET 0.000000 0.000000 0.000000
		CHANNELS 3 Zrotation Yrotation Xrotation
		JOINT LeftUpLeg
		{
			OFFSET 8.479694 -4.795517 -0.379053
			CHANNELS 3 Zrotation Yrotation Xrotation
			JOINT LeftLeg
			{
				OFFSET 0.485052 -32.551468 0.112863
				CHANNELS 3 Zrotation Yrotation Xrotation
				JOINT LeftFoot
				{
					OFFSET 0.438033 -32.635670 -3.012641
					CHANNELS 3 Zrotation Yrotation Xrotation
					JOINT LeftToeBase
					{
						OFFSET 0.970169 -13.225353 11.864223
						CHANNELS 3 Zrotation Yrotation Xrotation
						End Site
						{
							OFFSET 0.000000 0.000000 0.000000
						}
					}
				}
			}
		}
	}
	JOINT RightUpLeg_virtual
	{
		OFFSET 0.000000 0.000000 0.000000
		CHANNELS 3 Zrotation Yrotation Xrotation
		JOINT RightUpLeg
		{
			OFFSET -8.479694 -4.795517 -0.379053
			CHANNELS 3 Zrotation Yrotation Xrotation
			JOINT RightLeg
			{
				OFFSET -0.484100 -32.551483 0.112903
				CHANNELS 3 Zrotation Yrotation Xrotation
				JOINT RightFoot
				{
					OFFSET -0.438985 -32.635651 -3.012681
					CHANNELS 3 Zrotation Yrotation Xrotation
					JOINT RightToeBase
					{
						OFFSET -0.970169 -13.225354 11.864223
						CHANNELS 3 Zrotation Yrotation Xrotation
						End Site
						{
							OFFSET 0.000000 0.000000 0.000000
						}
					}
				}
			}
		}
	}
	JOINT Spine_virtual
	{
		OFFSET 0.000000 0.000000 0.000000
		CHANNELS 3 Zrotation Yrotation Xrotation
		JOINT Spine
		{
			OFFSET 0.000000 7.722015 1.166203
			CHANNELS 3 Zrotation Yrotation Xrotation
			JOINT Spine1
			{
				OFFSET 0.000000 12.024086 0.248766
				CHANNELS 3 Zrotation Yrotation Xrotation
				JOINT Spine2
				{
					OFFSET -0.000000 11.503036 -0.491240
					CHANNELS 3 Zrotation Yrotation Xrotation
					JOINT Neck_virtual
					{
						OFFSET 0.000000 0.000000 0.000000
						CHANNELS 3 Zrotation Yrotation Xrotation
						JOINT Neck
						{
							OFFSET 0.000000 18.430687 -3.123054
							CHANNELS 3 Zrotation Yrotation Xrotation
							JOINT Head
							{
								OFFSET -0.000000 9.051071 1.034021
								CHANNELS 3 Zrotation Yrotation Xrotation
								End Site
								{
									OFFSET 0.000000 0.000000 0.000000
								}
							}
						}
					}
					JOINT LeftShoulder_virtual
					{
						OFFSET 0.000000 0.000000 0.000000
						CHANNELS 3 Zrotation Yrotation Xrotation
						JOINT LeftShoulder
						{
							OFFSET 6.197824 13.665230 -4.064723
							CHANNELS 3 Zrotation Yrotation Xrotation
							JOINT LeftArm
							{
								OFFSET 7.778132 -0.187073 -1.709282
								CHANNELS 3 Zrotation Yrotation Xrotation
								JOINT LeftForeArm
								{
									OFFSET 21.954697 0.000000 -2.041093
									CHANNELS 3 Zrotation Yrotation Xrotation
									JOINT LeftHand
									{
										OFFSET 22.992908 0.000000 -0.870901
										CHANNELS 3 Zrotation Yrotation Xrotation
										End Site
										{
											OFFSET 0.000000 0.000000 0.000000
										}
									}
								}
							}
						}
					}
					JOINT RightShoulder_virtual
					{
						OFFSET 0.000000 0.000000 0.000000
						CHANNELS 3 Zrotation Yrotation Xrotation
						JOINT RightShoulder
						{
							OFFSET -6.197824 13.665230 -4.064723
							CHANNELS 3 Zrotation Yrotation Xrotation
							JOINT RightArm
							{
								OFFSET -7.778132 -0.187073 -1.709282
								CHANNELS 3 Zrotation Yrotation Xrotation
								JOINT RightForeArm
								{
									OFFSET -21.954697 0.000000 -2.041093
									CHANNELS 3 Zrotation Yrotation Xrotation
									JOINT RightHand
									{
										OFFSET -22.992908 0.000000 -0.870901
										CHANNELS 3 Zrotation Yrotation Xrotation
										End Site
										{
											OFFSET 0.000000 0.000000 0.000000
										}
									}
								}
							}
						}
					}
				}
			}
		}
	}
}
MOTION
Frames: 13
Frame Time: 0.033333
-4.663602 82.013237 55.899078 179.984719 1.587288 179.900448 -5.415061 0.646690 11.164535 5.540682 -1.577960 -23.563704 8.295205 8.613715 28.143129 -3.303756 -4.201284 -8.884745 0.000000 0.000000 0.000000 -1.374115 -0.823004 10.473729 -4.005819 0.654591 -16.965768 -1.383091 2.887636 24.140785 5.768841 7.040619 -6.664326 0.000000 0.000000 0.000000 2.283015 2.020972 -0.375402 -4.370320 2.145691 0.677464 0.353482 -2.201095 4.669443 -0.030202 -0.010422 -0.015769 -0.068516 -0.896676 5.114218 0.496999 -4.181117 -11.976832 0.000000 0.000000 0.000000 1.368805 -0.066743 2.313000 9.634720 1.071934 -2.573630 -11.202720 0.744412 -44.186891 1.541735 -25.030919 -4.943565 0.000000 0.000000 0.000000 -2.497930 1.179359 1.766048 5.323090 -15.306369 -2.631059 9.013127 -8.430561 -46.898452 1.486147 30.106483 -4.742659 0.000000 0.000000 0.000000 
-4.659486 82.021469 55.901894 179.974993 1.602162 179.906800 -5.417223 0.713267 11.113570 5.470571 -1.479044 -23.606927 8.099719 8.744503 28.025178 -3.542134 -4.514147 -9.323117 0.000000 0.000000 0.000000 -1.399983 -0.864957 10.446150 -3.953205 0.508393 -16.988149 -1.369457 2.765301 24.164149 5.699631 6.970998 -6.702121 0.000000 0.000000 0.000000 2.281397 2.020134 -0.386875 -4.376486 2.151721 0.668806 0.352952 -2.200352 4.653442 -0.023933 -0.010925 -0.033606 -0.083225 -0.881204 5.097278 0.497347 -4.201052 -11.971442 0.000000 0.000000 0.000000 1.320519 0.043240 2.372775 9.647605 0.966357 -2.655945 -11.206240 0.706379 -44.242721 1.524056 -25.026573 -4.923435 0.000000 0.000000 0.000000 -2.489496 1.152935 1.740900 5.313032 -15.332400 -2.659028 9.028730 -8.431103 -46.818986 1.427532 30.102723 -4.839772 0.000000 0.000000 0.000000 
-4.652730 82.022247 55.900894 179.982656 1.572348 179.960636 -5.418988 0.672637 11.073674 5.478247 -1.501478 -23.626053 8.094928 8.759707 28.021338 -3.545173 -4.512014 -9.330816 0.000000 0.000000 0.000000 -1.396983 -0.887050 10.408878 -3.948849 0.501783 -17.016107 -1.370622 2.765226 24.140013 5.694194 6.981042 -6.705894 0.000000 0.000000 0.000000 2.282641 2.025219 -0.450601 -4.378669 2.156798 0.675604 0.347344 -2.207044 4.677167 -0.037295 -0.014620 -0.011254 -0.058885 -0.893451 5.096020 0.483617 -4.180573 -11.898402 0.000000 0.000000 0.000000 1.364825 -0.058364 2.316807 9.679379 1.097858 -3.060663 -11.305056 0.755481 -44.220134 1.286559 -25.020762 -4.678011 0.000000 0.000000 0.000000 -2.487110 1.188628 1.687678 5.292843 -15.280363 -2.644888 9.003751 -8.524266 -46.833466 1.491383 30.154814 -4.739178 0.000000 0.000000 0.000000 
-4.643726 82.025368 55.897381 179.978422 1.496708 179.989951 -5.440394 0.623398 11.063449 5.486200 -1.534748 -23.614351 8.092049 8.750610 28.024382 -3.544106 -4.499675 -9.313387 0.000000 0.000000 0.000000 -1.373626 -0.996192 10.415949 -3.931432 0.496135 -17.016197 -1.359094 2.737991 24.114784 5.712785 7.022531 -6.681824 0.000000 0.000000 0.000000 2.275475 2.012906 -0.455496 -4.380860 2.146032 0.630227 0.357550 -2.222134 4.640947 -0.015614 -0.024889 -0.047906 -0.093434 -0.883361 5.145820 0.498311 -4.179033 -11.951862 0.000000 0.000000 0.000000 1.333934 -0.061440 2.380993 9.663477 0.986344 -2.540705 -11.383434 0.734677 -44.222104 1.550568 -25.072450 -5.020105 0.000000 0.000000 0.000000 -2.511334 1.114536 1.765937 5.274931 -15.290917 -2.628745 8.984999 -8.503759 -46.843551 1.470737 30.212952 -4.762095 0.000000 0.000000 0.000000 
-4.634575 82.026863 55.894463 179.976140 1.566238 179.894861 -5.423539 0.709131 11.121793 5.501792 -1.527495 -23.569615 8.086185 8.747772 28.003166 -3.552211 -4.502305 -9.308876 0.000000 0.000000 0.000000 -1.406285 -0.887787 10.445216 -3.932506 0.492868 -16.937561 -1.372629 2.746249 24.112146 5.673344 6.996215 -6.708383 0.000000 0.000000 0.000000 2.278118 2.006046 -0.396847 -4.383027 2.180347 0.652653 0.354180 -2.159341 4.658373 -0.037828 0.025562 -0.034352 -0.061125 -0.897230 5.079785 0.485292 -4.191425 -11.932191 0.000000 0.000000 0.000000 1.368261 -0.136321 2.318658 9.716880 0.995568 -2.713739 -11.509260 0.791498 -44.160605 1.496446 -25.107007 -4.967058 0.000000 0.000000 0.000000 -2.483465 1.111675 1.688736 5.217775 -15.297766 -2.665860 8.979217 -8.536299 -46.818437 1.502640 30.282170 -4.761435 0.000000 0.000000 0.000000 
-4.625911 82.024521 55.889671 -179.949298 1.578435 179.906800 -5.333370 0.712048 11.117389 5.550557 -1.519353 -23.577352 8.081936 8.745495 28.009595 -3.544620 -4.487829 -9.345090 0.000000 0.000000 0.000000 -1.505005 -0.863509 10.447982 -3.745554 0.671527 -16.931919 -1.289964 2.870512 24.040439 5.581399 6.910318 -6.648299 0.000000 0.000000 0.000000 2.324724 1.961701 -0.416260 -4.349678 2.130884 0.631456 0.379678 -2.195956 4.656470 -0.020571 0.022425 0.003347 -0.108874 -0.914716 5.038119 0.464465 -4.139355 -11.862861 0.000000 0.000000 0.000000 1.321649 -0.013226 2.286361 9.761154 1.109879 -2.802772 -11.551352 0.780525 -44.207908 1.413769 -25.130762 -4.849891 0.000000 0.000000 0.000000 -2.500574 1.089322 1.701945 5.104830 -15.241164 -2.703778 9.035986 -8.480239 -46.967027 1.577569 30.305799 -4.694066 0.000000 0.000000 0.000000 
-4.614834 82.026161 55.888069 -179.932974 1.576130 179.907989 -5.319755 0.703234 11.125614 5.562217 -1.507332 -23.571763 8.073459 8.746955 27.999216 -3.548246 -4.483390 -9.323293 0.000000 0.000000 0.000000 -1.478381 -0.880449 10.454318 -3.740094 0.652420 -16.902877 -1.298044 2.882819 24.034719 5.567545 6.926231 -6.640197 0.000000 0.000000 0.000000 2.347225 1.989111 -0.395298 -4.334127 2.201507 0.620289 0.397951 -2.206045 4.647114 0.004325 0.001025 -0.014097 -0.113095 -0.951917 5.032234 0.473872 -4.163605 -11.826395 0.000000 0.000000 0.000000 1.336960 -0.145879 2.224010 9.781863 1.021335 -2.690957 -11.663141 0.976285 -44.161937 1.446823 -25.214670 -4.895655 0.000000 0.000000 0.000000 -2.549465 1.128823 1.644356 5.084465 -15.184651 -2.584044 9.073216 -8.594904 -46.838241 1.447115 30.380524 -4.914502 0.000000 0.000000 0.000000 
-4.605890 82.026573 55.886932 179.984364 1.533534 179.957699 -5.400516 0.631322 11.094569 5.535734 -1.566984 -23.595633 8.062956 8.795525 27.984318 -3.557479 -4.488502 -9.309818 0.000000 0.000000 0.000000 -1.397112 -0.938966 10.407977 -3.908119 0.500684 -16.950045 -1.380114 2.738732 24.054891 5.632000 7.045154 -6.718266 0.000000 0.000000 0.000000 2.297366 1.898172 -0.405673 -4.392098 2.149345 0.569115 0.358462 -2.119743 4.621628 -0.040709 0.081737 -0.011701 -0.054506 -0.876051 5.018777 0.485326 -4.164925 -11.752460 0.000000 0.000000 0.000000 1.387093 -0.161435 2.242682 9.821443 1.011999 -2.718301 -11.711383 0.989731 -44.226397 1.397243 -25.209444 -4.862000 0.000000 0.000000 0.000000 -2.493897 1.108456 1.577899 5.026253 -15.135440 -2.621179 9.116675 -8.755304 -46.771619 1.484351 30.447672 -4.857821 0.000000 0.000000 0.000000 
-4.602909 82.021194 55.885735 -179.946730 1.655577 179.913863 -5.298732 0.701484 11.118778 5.555952 -1.484930 -23.557382 8.060311 8.842665 28.015279 -3.559351 -4.491719 -9.341107 0.000000 0.000000 0.000000 -1.487913 -0.861247 10.421989 -3.736172 0.691331 -16.888753 -1.330579 2.879033 24.043208 5.552668 6.976915 -6.667520 0.000000 0.000000 0.000000 2.361319 1.962296 -0.349209 -4.360442 2.255902 0.577335 0.388454 -2.204925 4.611450 -0.021166 0.011437 -0.024982 -0.084695 -0.959625 5.002723 0.478783 -4.109902 -11.730475 0.000000 0.000000 0.000000 1.378315 -0.121819 2.186551 9.907017 1.034278 -2.685975 -11.737968 1.147259 -44.202915 1.379432 -25.245393 -4.838962 0.000000 0.000000 0.000000 -2.532972 1.131469 1.618941 5.066468 -15.069955 -2.548732 9.073979 -8.656301 -46.816586 1.408317 30.528241 -5.015437 0.000000 0.000000 0.000000 
-4.599092 82.019966 55.875698 179.946525 1.529176 179.970225 -5.358664 0.592628 11.073600 5.537326 -1.564684 -23.571218 8.056322 8.914547 28.025021 -3.565127 -4.495269 -9.334588 0.000000 0.000000 0.000000 -1.501984 -0.994539 10.388482 -3.837730 0.687213 -16.947695 -1.343174 2.843769 24.043675 5.555417 7.009700 -6.713720 0.000000 0.000000 0.000000 2.314009 1.899633 -0.362566 -4.438182 2.219836 0.517246 0.391573 -2.269338 4.601355 0.018268 -0.041457 0.020612 -0.065060 -0.967196 4.951039 0.535758 -4.282195 -11.680694 0.000000 0.000000 0.000000 1.363727 -0.096042 2.121759 9.841959 1.106002 -2.578309 -11.623369 1.160269 -44.141026 1.426010 -25.243723 -4.901876 0.000000 0.000000 0.000000 -2.510809 1.100051 1.596331 4.929158 -15.022407 -2.624507 9.191805 -8.623968 -46.978980 1.508717 30.652642 -4.926617 0.000000 0.000000 0.000000 
-4.598016 82.018143 55.863815 179.969843 1.557835 179.898836 -5.379302 0.642456 11.102258 5.522753 -1.499668 -23.526178 8.034034 8.850084 28.035787 -3.597645 -4.533612 -9.327656 0.000000 0.000000 0.000000 -1.379618 -0.959971 10.413732 -3.907175 0.589679 -16.864149 -1.404910 2.706407 24.098902 5.592173 7.090165 -6.781049 0.000000 0.000000 0.000000 2.347889 1.876799 -0.273317 -4.432901 2.243534 0.507309 0.379935 -2.262935 4.584391 -0.032387 -0.032163 -0.017279 -0.025954 -0.927608 4.930372 0.520269 -4.068583 -11.610049 0.000000 0.000000 0.000000 1.424902 -0.095694 2.109125 9.926944 1.098712 -2.551822 -11.680055 1.211305 -44.158358 1.368266 -25.300301 -4.798264 0.000000 0.000000 0.000000 -2.450404 1.140076 1.559305 4.894181 -14.972075 -2.681849 9.266472 -8.692734 -46.935066 1.501744 30.800970 -4.998993 0.000000 0.000000 0.000000 
-4.603127 82.013397 55.846245 -179.932441 1.602998 179.993871 -5.278884 0.608891 11.041276 5.565469 -1.428536 -23.554339 8.024327 8.929213 28.070974 -3.607887 -4.547360 -9.385135 0.000000 0.000000 0.000000 -1.380251 -0.987542 10.359058 -3.845699 0.805793 -16.935780 -1.333999 2.900512 24.067519 5.593675 6.900921 -6.752426 0.000000 0.000000 0.000000 2.425467 1.846847 -0.297438 -4.409798 2.266469 0.414056 0.436114 -2.261798 4.537748 0.022563 -0.016241 -0.040964 -0.089875 -1.044374 4.961577 0.530665 -3.984193 -11.533960 0.000000 0.000000 0.000000 1.351285 -0.107056 2.126226 9.920248 1.053350 -2.524429 -11.621527 1.349292 -44.109174 1.351226 -25.381632 -4.693350 0.000000 0.000000 0.000000 -2.522067 1.136971 1.562112 4.929971 -14.873025 -2.644922 9.350553 -8.782875 -47.095698 1.558246 30.936249 -4.962065 0.000000 0.000000 0.000000 
-4.606288 82.010223 55.827553 -179.934968 1.564102 179.887758 -5.284774 0.590394 11.083020 5.560476 -1.374278 -23.496660 8.019108 8.891200 28.107456 -3.626583 -4.570840 -9.400893 0.000000 0.000000 0.000000 -1.380170 -1.017148 10.406570 -3.816748 0.765315 -16.840798 -1.331218 2.938805 24.090794 5.429773 7.019861 -6.806853 0.000000 0.000000 0.000000 2.449727 1.773184 -0.208725 -4.437160 2.276110 0.406538 0.431826 -2.251500 4.545663 0.003546 -0.013673 -0.027061 -0.066011 -0.985311 4.865767 0.561304 -4.001536 -11.472251 0.000000 0.000000 0.000000 1.376578 -0.093822 2.043547 9.955983 1.026573 -2.739672 -11.587111 1.466947 -44.099164 1.234034 -25.474340 -4.459105 0.000000 0.000000 0.000000 -2.509882 1.120685 1.461815 4.885773 -14.799584 -2.664723 9.472167 -8.862492 -46.996964 1.391062 31.102865 -5.187273 0.000000 0.000000 0.000000 
